<svg width="216" height="133" viewBox="0 0 216 133" fill="none" xmlns="http://www.w3.org/2000/svg">
<path d="M19.9727 92.0742C18.8138 92.0742 17.7852 92.3021 16.8867 92.7578C16.0013 93.2005 15.2526 93.8451 14.6406 94.6914C14.0417 95.5378 13.5859 96.5599 13.2734 97.7578C12.9609 98.9557 12.8047 100.303 12.8047 101.801C12.8047 103.819 13.0521 105.544 13.5469 106.977C14.0547 108.396 14.8359 109.483 15.8906 110.238C16.9453 110.98 18.306 111.352 19.9727 111.352C21.1315 111.352 22.2904 111.221 23.4492 110.961C24.6211 110.701 25.8906 110.329 27.2578 109.848V114.926C25.9948 115.447 24.7513 115.818 23.5273 116.039C22.3034 116.273 20.9297 116.391 19.4062 116.391C16.4635 116.391 14.0417 115.785 12.1406 114.574C10.2526 113.35 8.85286 111.645 7.94141 109.457C7.02995 107.257 6.57422 104.691 6.57422 101.762C6.57422 99.6003 6.86719 97.6211 7.45312 95.8242C8.03906 94.0273 8.89844 92.4714 10.0312 91.1562C11.1641 89.8411 12.5638 88.8255 14.2305 88.1094C15.8971 87.3932 17.8112 87.0352 19.9727 87.0352C21.3919 87.0352 22.8112 87.2174 24.2305 87.582C25.6628 87.9336 27.0299 88.4219 28.332 89.0469L26.3789 93.9688C25.3112 93.4609 24.237 93.0182 23.1562 92.6406C22.0755 92.263 21.0143 92.0742 19.9727 92.0742ZM52.7266 105.043C52.7266 106.866 52.4792 108.48 51.9844 109.887C51.5026 111.293 50.793 112.484 49.8555 113.461C48.931 114.424 47.8112 115.154 46.4961 115.648C45.194 116.143 43.7227 116.391 42.082 116.391C40.5456 116.391 39.1328 116.143 37.8438 115.648C36.5677 115.154 35.4544 114.424 34.5039 113.461C33.5664 112.484 32.8372 111.293 32.3164 109.887C31.8086 108.48 31.5547 106.866 31.5547 105.043C31.5547 102.621 31.9844 100.57 32.8438 98.8906C33.7031 97.2109 34.9271 95.9349 36.5156 95.0625C38.1042 94.1901 39.9987 93.7539 42.1992 93.7539C44.2435 93.7539 46.0534 94.1901 47.6289 95.0625C49.2174 95.9349 50.4609 97.2109 51.3594 98.8906C52.2708 100.57 52.7266 102.621 52.7266 105.043ZM37.6289 105.043C37.6289 106.475 37.7852 107.68 38.0977 108.656C38.4102 109.633 38.8984 110.368 39.5625 110.863C40.2266 111.358 41.0924 111.605 42.1602 111.605C43.2148 111.605 44.0677 111.358 44.7188 110.863C45.3828 110.368 45.8646 109.633 46.1641 108.656C46.4766 107.68 46.6328 106.475 46.6328 105.043C46.6328 103.598 46.4766 102.4 46.1641 101.449C45.8646 100.486 45.3828 99.763 44.7188 99.2812C44.0547 98.7995 43.1888 98.5586 42.1211 98.5586C40.5456 98.5586 39.3997 99.099 38.6836 100.18C37.9805 101.26 37.6289 102.882 37.6289 105.043ZM77.6875 94.1641V116H73.1172L72.3164 113.207H72.0039C71.5352 113.949 70.9492 114.555 70.2461 115.023C69.543 115.492 68.7682 115.837 67.9219 116.059C67.0755 116.28 66.1966 116.391 65.2852 116.391C63.7227 116.391 62.362 116.117 61.2031 115.57C60.0443 115.01 59.1393 114.145 58.4883 112.973C57.8503 111.801 57.5312 110.277 57.5312 108.402V94.1641H63.4883V106.918C63.4883 108.48 63.7682 109.659 64.3281 110.453C64.888 111.247 65.7799 111.645 67.0039 111.645C68.2148 111.645 69.1654 111.371 69.8555 110.824C70.5456 110.264 71.0273 109.451 71.3008 108.383C71.5872 107.302 71.7305 105.987 71.7305 104.438V94.1641H77.6875ZM96.125 93.7539C96.4245 93.7539 96.7695 93.7734 97.1602 93.8125C97.5638 93.8385 97.8893 93.8776 98.1367 93.9297L97.6875 99.5156C97.4922 99.4505 97.2122 99.4049 96.8477 99.3789C96.4961 99.3398 96.1901 99.3203 95.9297 99.3203C95.1615 99.3203 94.4128 99.418 93.6836 99.6133C92.9674 99.8086 92.3229 100.128 91.75 100.57C91.1771 101 90.7214 101.573 90.3828 102.289C90.0573 102.992 89.8945 103.858 89.8945 104.887V116H83.9375V94.1641H88.4492L89.3281 97.8359H89.6211C90.0508 97.0938 90.5846 96.4167 91.2227 95.8047C91.8737 95.1797 92.6094 94.6849 93.4297 94.3203C94.263 93.9427 95.1615 93.7539 96.125 93.7539ZM111.301 111.645C111.952 111.645 112.583 111.579 113.195 111.449C113.82 111.319 114.439 111.156 115.051 110.961V115.395C114.413 115.681 113.618 115.915 112.668 116.098C111.73 116.293 110.702 116.391 109.582 116.391C108.28 116.391 107.108 116.182 106.066 115.766C105.038 115.336 104.224 114.6 103.625 113.559C103.039 112.504 102.746 111.039 102.746 109.164V98.6367H99.8945V96.1172L103.176 94.125L104.895 89.5156H108.703V94.1641H114.816V98.6367H108.703V109.164C108.703 109.997 108.938 110.622 109.406 111.039C109.888 111.443 110.52 111.645 111.301 111.645ZM125.441 94.1641V116H119.484V94.1641H125.441ZM122.473 85.6094C123.358 85.6094 124.12 85.8177 124.758 86.2344C125.396 86.638 125.715 87.3997 125.715 88.5195C125.715 89.6263 125.396 90.3945 124.758 90.8242C124.12 91.2409 123.358 91.4492 122.473 91.4492C121.574 91.4492 120.806 91.2409 120.168 90.8242C119.543 90.3945 119.23 89.6263 119.23 88.5195C119.23 87.3997 119.543 86.638 120.168 86.2344C120.806 85.8177 121.574 85.6094 122.473 85.6094ZM146.945 109.516C146.945 111 146.594 112.257 145.891 113.285C145.201 114.301 144.165 115.076 142.785 115.609C141.405 116.13 139.686 116.391 137.629 116.391C136.105 116.391 134.797 116.293 133.703 116.098C132.622 115.902 131.529 115.577 130.422 115.121V110.199C131.607 110.733 132.876 111.176 134.23 111.527C135.598 111.866 136.796 112.035 137.824 112.035C138.983 112.035 139.81 111.866 140.305 111.527C140.812 111.176 141.066 110.72 141.066 110.16C141.066 109.796 140.962 109.47 140.754 109.184C140.559 108.884 140.129 108.552 139.465 108.188C138.801 107.81 137.759 107.322 136.34 106.723C134.973 106.15 133.846 105.57 132.961 104.984C132.089 104.398 131.438 103.708 131.008 102.914C130.591 102.107 130.383 101.085 130.383 99.8477C130.383 97.8294 131.164 96.3125 132.727 95.2969C134.302 94.2682 136.405 93.7539 139.035 93.7539C140.389 93.7539 141.678 93.8906 142.902 94.1641C144.139 94.4375 145.409 94.8737 146.711 95.4727L144.914 99.7695C143.833 99.3008 142.811 98.9167 141.848 98.6172C140.897 98.3177 139.927 98.168 138.938 98.168C138.065 98.168 137.408 98.2852 136.965 98.5195C136.522 98.7539 136.301 99.112 136.301 99.5938C136.301 99.9453 136.411 100.258 136.633 100.531C136.867 100.805 137.31 101.111 137.961 101.449C138.625 101.775 139.595 102.198 140.871 102.719C142.108 103.227 143.182 103.76 144.094 104.32C145.005 104.867 145.708 105.551 146.203 106.371C146.698 107.178 146.945 108.227 146.945 109.516ZM171.438 105.043C171.438 106.866 171.19 108.48 170.695 109.887C170.214 111.293 169.504 112.484 168.566 113.461C167.642 114.424 166.522 115.154 165.207 115.648C163.905 116.143 162.434 116.391 160.793 116.391C159.257 116.391 157.844 116.143 156.555 115.648C155.279 115.154 154.165 114.424 153.215 113.461C152.277 112.484 151.548 111.293 151.027 109.887C150.52 108.48 150.266 106.866 150.266 105.043C150.266 102.621 150.695 100.57 151.555 98.8906C152.414 97.2109 153.638 95.9349 155.227 95.0625C156.815 94.1901 158.71 93.7539 160.91 93.7539C162.954 93.7539 164.764 94.1901 166.34 95.0625C167.928 95.9349 169.172 97.2109 170.07 98.8906C170.982 100.57 171.438 102.621 171.438 105.043ZM156.34 105.043C156.34 106.475 156.496 107.68 156.809 108.656C157.121 109.633 157.609 110.368 158.273 110.863C158.938 111.358 159.803 111.605 160.871 111.605C161.926 111.605 162.779 111.358 163.43 110.863C164.094 110.368 164.576 109.633 164.875 108.656C165.188 107.68 165.344 106.475 165.344 105.043C165.344 103.598 165.188 102.4 164.875 101.449C164.576 100.486 164.094 99.763 163.43 99.2812C162.766 98.7995 161.9 98.5586 160.832 98.5586C159.257 98.5586 158.111 99.099 157.395 100.18C156.691 101.26 156.34 102.882 156.34 105.043ZM196.398 94.1641V116H191.828L191.027 113.207H190.715C190.246 113.949 189.66 114.555 188.957 115.023C188.254 115.492 187.479 115.837 186.633 116.059C185.786 116.28 184.908 116.391 183.996 116.391C182.434 116.391 181.073 116.117 179.914 115.57C178.755 115.01 177.85 114.145 177.199 112.973C176.561 111.801 176.242 110.277 176.242 108.402V94.1641H182.199V106.918C182.199 108.48 182.479 109.659 183.039 110.453C183.599 111.247 184.491 111.645 185.715 111.645C186.926 111.645 187.876 111.371 188.566 110.824C189.257 110.264 189.738 109.451 190.012 108.383C190.298 107.302 190.441 105.987 190.441 104.438V94.1641H196.398ZM208.605 116H202.648V85.6094H208.605V116Z" fill="#E6EDEB"/>
<path d="M159.149 0.0392456H151.724C150.683 0.0392456 149.695 0.517246 149.057 1.33516L105.262 56.8151L78.5375 15.637C78.2198 15.2337 77.8149 14.9075 77.3531 14.6831C76.8913 14.4586 76.3847 14.3417 75.8713 14.3411H73.2806C72.5689 14.3411 72.1759 15.159 72.6114 15.7114L106.452 67.1399H107.939L159.818 1.39889C160.253 0.857158 159.86 0.0392456 159.149 0.0392456Z" fill="#E6EDEB"/>
<g clip-path="url(#clip0_307_616)">
<path d="M122.007 31.1517C118.395 39.9492 108.335 44.1507 99.5424 40.5364C90.7449 36.9243 86.5421 26.8645 90.1556 18.0661C93.7677 9.2686 103.829 5.06645 112.626 8.6793C121.421 12.2926 125.623 22.3518 122.01 31.1449" fill="#C3D82E"/>
<path d="M97.1222 39.3207C97.1222 39.3207 107.954 22.4119 123.216 22.8949L123.279 23.732C123.279 23.732 107.739 22.934 98.8609 40.2658L97.1213 39.3213M90.1557 18.0713C90.1557 18.0713 104.66 18.2649 114.142 9.39518L113.021 8.93575C113.021 8.93575 104.034 16.92 90.1557 16.92" fill="white"/>
</g>
<line x1="20" y1="72" x2="197" y2="72" stroke="#C3D82E" stroke-width="4" stroke-linecap="round"/>
<defs>
<clipPath id="clip0_307_616">
<rect width="35.5536" height="35.5536" fill="white" transform="translate(111.229) rotate(56.8124)"/>
</clipPath>
</defs>
</svg>
