<svg width="108" height="68" viewBox="0 0 108 68" fill="none" xmlns="http://www.w3.org/2000/svg">
<path d="M86.7194 0.0393066H79.2945C78.2535 0.0393066 77.2656 0.517307 76.6283 1.33522L32.8327 56.8151L6.10832 15.6371C5.79064 15.2337 5.38572 14.9076 4.92395 14.6832C4.46218 14.4587 3.95557 14.3418 3.44214 14.3412H0.851497C0.139808 14.3412 -0.253216 15.1591 0.182296 15.7114L34.0224 67.1399H35.5095L87.3886 1.39895C87.8241 0.857219 87.4311 0.0393066 86.7194 0.0393066Z" fill="#BBF244"/>
<g clip-path="url(#clip0_305_615)">
<path d="M49.5783 31.1518C45.9662 39.9492 35.9062 44.1508 27.1132 40.5364C18.3158 36.9243 14.113 26.8645 17.7265 18.0661C21.3386 9.26866 31.3995 5.06651 40.1968 8.67936C48.9924 12.2927 53.1941 22.3519 49.5805 31.145" fill="#E6EDEB"/>
<path d="M24.6931 39.3207C24.6931 39.3207 35.5245 22.412 50.7866 22.895L50.8495 23.732C50.8495 23.732 35.3097 22.9341 26.4318 40.2659L24.6922 39.3213M17.7266 18.0713C17.7266 18.0713 32.2305 18.265 41.7125 9.39524L40.5922 8.93581C40.5922 8.93581 31.6052 16.9201 17.7266 16.92" fill="#113B5E"/>
</g>
<path d="M46.3799 66.0881L95.3799 2.08814" stroke="#ABC9C6" stroke-width="3"/>
<path d="M57.5709 66L106.571 2" stroke="#B6CBBC" stroke-width="3"/>
<defs>
<clipPath id="clip0_305_615">
<rect width="35.5536" height="35.5536" fill="white" transform="translate(38.7994) rotate(56.8124)"/>
</clipPath>
</defs>
</svg>
