<svg width="159" height="247" viewBox="0 0 159 247" fill="none" xmlns="http://www.w3.org/2000/svg">
<path d="M68.2706 5.72144C74.4816 -1.13892 84.5681 -1.13892 90.7791 5.72144L154.379 75.9714C158.95 81.0207 160.292 88.5396 157.808 95.1255C155.323 101.711 149.559 105.992 143.1 105.992H15.9C9.49032 105.992 3.67689 101.711 1.19251 95.1255C-1.29186 88.5396 0.0993867 81.0207 4.62095 75.9714L68.2209 5.72144H68.2706ZM68.2706 241.333L4.67064 171.083C0.0993872 166.034 -1.24218 158.515 1.2422 151.929C3.72657 145.343 9.49032 141.062 15.9497 141.062H143.1C149.51 141.062 155.323 145.343 157.808 151.929C160.292 158.515 158.901 166.034 154.379 171.083L90.7791 241.333C84.5681 248.194 74.4816 248.194 68.2706 241.333Z" fill="#BBF244"/>
</svg>
