<svg width="160" height="247" viewBox="0 0 160 247" fill="none" xmlns="http://www.w3.org/2000/svg">
<path d="M68.2596 241.382L4.65958 170.846C0.0883336 165.776 -1.25323 158.227 1.23115 151.614C3.71552 145.001 9.47927 140.703 15.9386 140.703H143.089C149.499 140.703 155.312 145.001 157.796 151.614C160.281 158.227 158.89 165.776 154.368 170.846L90.768 241.382C84.5571 248.27 74.4705 248.27 68.2596 241.382Z" fill="#BBF244"/>
<path d="M68.4244 5.14526C74.6354 -1.71509 84.7219 -1.71509 90.9329 5.14526L154.533 75.3953C159.104 80.4445 160.446 87.9634 157.961 94.5494C155.477 101.135 149.713 105.416 143.254 105.416H16.0538C9.64413 105.416 3.8307 101.135 1.34632 94.5494C-1.13805 87.9634 0.253195 80.4445 4.77476 75.3953L68.3748 5.14526H68.4244Z" fill="#4D4D4D"/>
</svg>
