<svg width="160" height="247" viewBox="0 0 160 247" fill="none" xmlns="http://www.w3.org/2000/svg">
<path d="M90.9329 5.16622L154.533 75.7019C159.104 80.7717 160.446 88.3212 157.961 94.9339C155.477 101.547 149.713 105.845 143.254 105.845L16.1035 105.845C9.69378 105.845 3.88036 101.547 1.39598 94.9339C-1.08839 88.3212 0.302841 80.7717 4.8244 75.7019L68.4244 5.16622C74.6354 -1.72203 84.7219 -1.72203 90.9329 5.16622Z" fill="#BBF244"/>
<path d="M90.768 241.403C84.5571 248.263 74.4705 248.263 68.2596 241.403L4.65955 171.153C0.088303 166.103 -1.25324 158.584 1.23113 151.998C3.71551 145.412 9.47925 141.132 15.9386 141.132L143.139 141.132C149.548 141.132 155.362 145.412 157.846 151.998C160.331 158.584 158.939 166.103 154.418 171.153L90.8177 241.403L90.768 241.403Z" fill="#4D4D4D"/>
</svg>
